<svg width="646" height="587" viewBox="0 0 646 587" fill="none" xmlns="http://www.w3.org/2000/svg">
<g filter="url(#filter0_d_20_2)">
<ellipse cx="318" cy="289.5" rx="300" ry="275.5" fill="white" fill-opacity="0.78" shape-rendering="crispEdges"/>
<path d="M318 570C486.037 570 623 444.808 623 289.5C623 134.192 486.037 9 318 9C149.963 9 13 134.192 13 289.5C13 444.808 149.963 570 318 570Z" stroke="#038C21" stroke-width="10" shape-rendering="crispEdges"/>
</g>
<g filter="url(#filter1_d_20_2)">
<path d="M312.12 364.44C315.36 364.44 318.12 365 320.4 366.12C322.72 367.2 324.48 368.76 325.68 370.8C326.92 372.84 327.54 375.32 327.54 378.24C327.54 379.96 327.28 381.66 326.76 383.34C326.24 385.02 325.4 386.56 324.24 387.96C323.12 389.32 321.62 390.42 319.74 391.26C317.86 392.06 315.58 392.46 312.9 392.46H306.54V408H300.12V364.44H312.12ZM312.9 386.28C314.5 386.28 315.84 386.02 316.92 385.5C318 384.94 318.84 384.24 319.44 383.4C320.08 382.56 320.52 381.7 320.76 380.82C321.04 379.9 321.18 379.08 321.18 378.36C321.18 377.56 321.04 376.72 320.76 375.84C320.52 374.92 320.1 374.08 319.5 373.32C318.9 372.52 318.08 371.88 317.04 371.4C316 370.88 314.7 370.62 313.14 370.62H306.54V386.28H312.9ZM334.892 408V361.38H340.892V388.56L340.832 387.54C341.672 385.9 342.952 384.54 344.672 383.46C346.392 382.38 348.452 381.84 350.852 381.84C353.212 381.84 355.152 382.54 356.672 383.94C358.232 385.34 359.032 387.16 359.072 389.4V408H352.892V391.56C352.852 390.28 352.472 389.24 351.752 388.44C351.032 387.6 349.912 387.16 348.392 387.12C347.032 387.12 345.792 387.54 344.672 388.38C343.552 389.18 342.672 390.3 342.032 391.74C341.392 393.14 341.072 394.74 341.072 396.54V408H334.892ZM379.025 408.6C376.665 408.6 374.525 408.12 372.605 407.16C370.685 406.16 369.165 404.68 368.045 402.72C366.925 400.76 366.365 398.34 366.365 395.46C366.365 392.62 366.945 390.18 368.105 388.14C369.305 386.1 370.865 384.54 372.785 383.46C374.745 382.34 376.865 381.78 379.145 381.78C381.545 381.78 383.505 382.3 385.025 383.34C386.585 384.34 387.805 385.52 388.685 386.88L388.265 387.84L388.865 382.86H394.565V408H388.385V401.7L389.045 403.2C388.885 403.52 388.545 403.98 388.025 404.58C387.505 405.14 386.805 405.74 385.925 406.38C385.085 407.02 384.085 407.56 382.925 408C381.805 408.4 380.505 408.6 379.025 408.6ZM380.705 403.56C382.025 403.56 383.205 403.32 384.245 402.84C385.285 402.36 386.165 401.68 386.885 400.8C387.605 399.92 388.105 398.88 388.385 397.68V392.46C388.065 391.34 387.525 390.38 386.765 389.58C386.005 388.74 385.085 388.08 384.005 387.6C382.965 387.12 381.805 386.88 380.525 386.88C379.085 386.88 377.765 387.24 376.565 387.96C375.365 388.64 374.405 389.6 373.685 390.84C372.965 392.08 372.605 393.52 372.605 395.16C372.605 396.72 372.965 398.14 373.685 399.42C374.445 400.7 375.445 401.72 376.685 402.48C377.925 403.2 379.265 403.56 380.705 403.56ZM409.553 382.86L410.153 390.06L409.853 389.1C410.533 387.58 411.493 386.28 412.733 385.2C413.973 384.12 415.253 383.3 416.573 382.74C417.933 382.14 419.073 381.84 419.993 381.84L419.693 387.96C417.773 387.84 416.093 388.2 414.653 389.04C413.253 389.88 412.153 391 411.353 392.4C410.553 393.8 410.153 395.3 410.153 396.9V408H404.033V382.86H409.553ZM432.522 382.86L433.062 388.26L432.822 387.84C433.782 385.96 435.102 384.5 436.782 383.46C438.462 382.38 440.402 381.84 442.602 381.84C443.962 381.84 445.182 382.06 446.262 382.5C447.382 382.94 448.302 383.56 449.022 384.36C449.742 385.16 450.202 386.16 450.402 387.36L450.102 387.54C451.102 385.78 452.422 384.4 454.062 383.4C455.742 382.36 457.522 381.84 459.402 381.84C461.842 381.84 463.782 382.54 465.222 383.94C466.702 385.34 467.462 387.14 467.502 389.34V408H461.382V391.68C461.342 390.44 461.042 389.4 460.482 388.56C459.962 387.72 459.022 387.26 457.662 387.18C456.222 387.18 454.942 387.62 453.822 388.5C452.742 389.38 451.902 390.52 451.302 391.92C450.702 393.32 450.382 394.82 450.342 396.42V408H444.162V391.68C444.122 390.44 443.822 389.4 443.262 388.56C442.702 387.72 441.722 387.26 440.322 387.18C438.882 387.18 437.622 387.62 436.542 388.5C435.462 389.38 434.622 390.54 434.022 391.98C433.462 393.38 433.182 394.86 433.182 396.42V408H427.002V382.86H432.522ZM487.482 408.6C485.122 408.6 482.982 408.12 481.062 407.16C479.142 406.16 477.622 404.68 476.502 402.72C475.382 400.76 474.822 398.34 474.822 395.46C474.822 392.62 475.402 390.18 476.562 388.14C477.762 386.1 479.322 384.54 481.242 383.46C483.202 382.34 485.322 381.78 487.602 381.78C490.002 381.78 491.962 382.3 493.482 383.34C495.042 384.34 496.262 385.52 497.142 386.88L496.722 387.84L497.322 382.86H503.022V408H496.842V401.7L497.502 403.2C497.342 403.52 497.002 403.98 496.482 404.58C495.962 405.14 495.262 405.74 494.382 406.38C493.542 407.02 492.542 407.56 491.382 408C490.262 408.4 488.962 408.6 487.482 408.6ZM489.162 403.56C490.482 403.56 491.662 403.32 492.702 402.84C493.742 402.36 494.622 401.68 495.342 400.8C496.062 399.92 496.562 398.88 496.842 397.68V392.46C496.522 391.34 495.982 390.38 495.222 389.58C494.462 388.74 493.542 388.08 492.462 387.6C491.422 387.12 490.262 386.88 488.982 386.88C487.542 386.88 486.222 387.24 485.022 387.96C483.822 388.64 482.862 389.6 482.142 390.84C481.422 392.08 481.062 393.52 481.062 395.16C481.062 396.72 481.422 398.14 482.142 399.42C482.902 400.7 483.902 401.72 485.142 402.48C486.382 403.2 487.722 403.56 489.162 403.56ZM533.07 405.66C531.95 406.58 530.59 407.3 528.99 407.82C527.43 408.34 525.85 408.6 524.25 408.6C521.49 408.6 519.05 408.06 516.93 406.98C514.85 405.9 513.23 404.38 512.07 402.42C510.91 400.46 510.33 398.12 510.33 395.4C510.33 392.72 510.95 390.4 512.19 388.44C513.43 386.44 515.07 384.92 517.11 383.88C519.15 382.8 521.31 382.26 523.59 382.26C525.67 382.26 527.51 382.54 529.11 383.1C530.71 383.66 532.09 384.44 533.25 385.44L530.19 389.46C529.51 388.9 528.65 388.4 527.61 387.96C526.61 387.52 525.45 387.3 524.13 387.3C522.73 387.3 521.45 387.66 520.29 388.38C519.13 389.06 518.21 390.02 517.53 391.26C516.85 392.46 516.51 393.84 516.51 395.4C516.51 396.88 516.85 398.26 517.53 399.54C518.25 400.78 519.23 401.76 520.47 402.48C521.71 403.2 523.13 403.56 524.73 403.56C525.77 403.56 526.73 403.42 527.61 403.14C528.49 402.82 529.27 402.38 529.95 401.82L533.07 405.66ZM542.246 420.06L558.866 382.86H564.506L548.306 420.06H542.246ZM548.606 408.18L536.426 382.86H543.386L553.346 405.06L548.606 408.18Z" fill="black" fill-opacity="0.85" shape-rendering="crispEdges"/>
</g>
<g filter="url(#filter2_d_20_2)">
<path d="M281.2 196C278.6 194.667 275.833 193.533 272.9 192.6C269.967 191.6 267.167 191.1 264.5 191.1C260.9 191.1 258.033 191.9 255.9 193.5C253.833 195.1 252.8 197.3 252.8 200.1C252.8 202.1 253.533 203.867 255 205.4C256.467 206.867 258.333 208.167 260.6 209.3C262.867 210.367 265.267 211.4 267.8 212.4C270 213.2 272.167 214.167 274.3 215.3C276.5 216.367 278.467 217.7 280.2 219.3C281.933 220.9 283.3 222.9 284.3 225.3C285.367 227.633 285.9 230.533 285.9 234C285.9 237.8 284.933 241.3 283 244.5C281.067 247.633 278.3 250.133 274.7 252C271.1 253.867 266.7 254.8 261.5 254.8C258.5 254.8 255.533 254.467 252.6 253.8C249.733 253.133 247 252.233 244.4 251.1C241.8 249.9 239.4 248.567 237.2 247.1L242.4 238C244 239.2 245.833 240.3 247.9 241.3C249.967 242.3 252.1 243.1 254.3 243.7C256.5 244.233 258.567 244.5 260.5 244.5C262.567 244.5 264.6 244.167 266.6 243.5C268.667 242.833 270.367 241.733 271.7 240.2C273.1 238.667 273.8 236.633 273.8 234.1C273.8 232.033 273.2 230.267 272 228.8C270.8 227.333 269.233 226.067 267.3 225C265.433 223.867 263.367 222.867 261.1 222C258.833 221.133 256.5 220.167 254.1 219.1C251.767 218.033 249.6 216.733 247.6 215.2C245.6 213.6 243.967 211.667 242.7 209.4C241.433 207.133 240.8 204.333 240.8 201C240.8 197 241.733 193.533 243.6 190.6C245.467 187.667 248.033 185.333 251.3 183.6C254.633 181.867 258.467 180.933 262.8 180.8C267.933 180.8 272.3 181.433 275.9 182.7C279.567 183.9 282.8 185.367 285.6 187.1L281.2 196ZM310.003 211.7L311.003 223.7L310.603 222C311.803 219.467 313.436 217.3 315.503 215.5C317.636 213.633 319.803 212.233 322.003 211.3C324.203 210.3 326.003 209.8 327.403 209.8L326.903 221C323.703 220.733 320.903 221.333 318.503 222.8C316.17 224.2 314.336 226.067 313.003 228.4C311.736 230.733 311.103 233.2 311.103 235.8V254H299.903V211.7H310.003ZM339.868 211.7H351.068V254H339.868V211.7ZM339.368 196.6C339.368 194.867 340.035 193.433 341.368 192.3C342.768 191.167 344.268 190.6 345.868 190.6C347.468 190.6 348.901 191.167 350.168 192.3C351.501 193.433 352.168 194.867 352.168 196.6C352.168 198.333 351.501 199.767 350.168 200.9C348.901 201.967 347.468 202.5 345.868 202.5C344.268 202.5 342.768 201.933 341.368 200.8C340.035 199.667 339.368 198.267 339.368 196.6ZM235.4 348L267.6 272.2H268.3L300.5 348H287.1L264.4 290.5L272.8 284.8L246.9 348H235.4ZM255.6 321H280.5L284.5 330.9H252.1L255.6 321ZM321.722 305.7L322.722 314.3L322.322 313.6C323.922 310.533 326.089 308.133 328.822 306.4C331.622 304.667 334.855 303.8 338.522 303.8C340.855 303.8 342.922 304.167 344.722 304.9C346.522 305.633 348.022 306.667 349.222 308C350.489 309.333 351.322 311 351.722 313L351.122 313.2C352.855 310.333 355.089 308.067 357.822 306.4C360.555 304.667 363.455 303.8 366.522 303.8C370.655 303.8 373.955 305 376.422 307.4C378.889 309.733 380.155 312.767 380.222 316.5V348H369.122V320.9C369.055 318.833 368.622 317.133 367.822 315.8C367.022 314.4 365.522 313.633 363.322 313.5C360.922 313.5 358.855 314.267 357.122 315.8C355.389 317.267 354.022 319.2 353.022 321.6C352.089 323.933 351.622 326.433 351.622 329.1V348H340.322V320.9C340.255 318.833 339.789 317.133 338.922 315.8C338.055 314.4 336.522 313.633 334.322 313.5C331.989 313.5 329.955 314.267 328.222 315.8C326.489 317.267 325.155 319.2 324.222 321.6C323.289 323.933 322.822 326.4 322.822 329V348H311.622V305.7H321.722ZM423.306 349.1C419.506 349.1 416.24 348.367 413.506 346.9C410.773 345.367 408.54 343.433 406.806 341.1L407.806 338.2V348H396.606V270H407.806V314.4L407.606 310.4C409.273 308.467 411.606 306.9 414.606 305.7C417.606 304.433 421.006 303.8 424.806 303.8C428.54 303.8 431.94 304.7 435.006 306.5C438.14 308.233 440.64 310.767 442.506 314.1C444.373 317.433 445.306 321.433 445.306 326.1C445.306 330.833 444.273 334.933 442.206 338.4C440.206 341.867 437.506 344.533 434.106 346.4C430.773 348.2 427.173 349.1 423.306 349.1ZM420.906 339.6C423.306 339.6 425.473 339.033 427.406 337.9C429.406 336.7 430.973 335.067 432.106 333C433.306 330.933 433.906 328.6 433.906 326C433.906 323.467 433.306 321.2 432.106 319.2C430.973 317.2 429.406 315.633 427.406 314.5C425.473 313.3 423.306 312.7 420.906 312.7C418.773 312.7 416.806 313.067 415.006 313.8C413.273 314.533 411.773 315.567 410.506 316.9C409.306 318.167 408.406 319.667 407.806 321.4V330.8C408.473 332.533 409.406 334.067 410.606 335.4C411.806 336.733 413.273 337.767 415.006 338.5C416.806 339.233 418.773 339.6 420.906 339.6ZM475.953 349.1C471.953 349.1 468.32 348.267 465.053 346.6C461.853 344.933 459.32 342.467 457.453 339.2C455.586 335.867 454.653 331.767 454.653 326.9C454.653 322.1 455.62 318 457.553 314.6C459.553 311.133 462.153 308.467 465.353 306.6C468.62 304.733 472.153 303.8 475.953 303.8C480.02 303.8 483.286 304.6 485.753 306.2C488.286 307.8 490.253 309.7 491.653 311.9L491.053 313.5L492.153 305.7H502.453V348H491.253V337.7L492.353 340.4C492.086 340.8 491.553 341.467 490.753 342.4C489.953 343.267 488.853 344.233 487.453 345.3C486.053 346.367 484.386 347.267 482.453 348C480.586 348.733 478.42 349.1 475.953 349.1ZM479.053 339.9C481.053 339.9 482.853 339.533 484.453 338.8C486.12 338.067 487.52 337.033 488.653 335.7C489.853 334.367 490.72 332.767 491.253 330.9V321.7C490.72 319.967 489.853 318.467 488.653 317.2C487.453 315.867 485.986 314.833 484.253 314.1C482.586 313.367 480.72 313 478.653 313C476.386 313 474.286 313.567 472.353 314.7C470.42 315.833 468.853 317.4 467.653 319.4C466.52 321.4 465.953 323.7 465.953 326.3C465.953 328.833 466.553 331.133 467.753 333.2C468.953 335.267 470.553 336.9 472.553 338.1C474.553 339.3 476.72 339.9 479.053 339.9ZM518.919 270H530.119V348H518.919V270Z" fill="black"/>
<path d="M281.2 196L280.972 196.445L281.423 196.676L281.648 196.222L281.2 196ZM272.9 192.6L272.739 193.073L272.748 193.076L272.9 192.6ZM255.9 193.5L255.6 193.1L255.594 193.105L255.9 193.5ZM255 205.4L254.639 205.746L254.646 205.754L255 205.4ZM260.6 209.3L260.376 209.747L260.387 209.752L260.6 209.3ZM267.8 212.4L267.616 212.865L267.629 212.87L267.8 212.4ZM274.3 215.3L274.065 215.742L274.074 215.746L274.082 215.75L274.3 215.3ZM280.2 219.3L279.861 219.667L280.2 219.3ZM284.3 225.3L283.838 225.492L283.842 225.5L283.845 225.508L284.3 225.3ZM283 244.5L283.426 244.763L283.428 244.759L283 244.5ZM274.7 252L274.93 252.444L274.7 252ZM252.6 253.8L252.487 254.287L252.489 254.288L252.6 253.8ZM244.4 251.1L244.19 251.554L244.2 251.558L244.4 251.1ZM237.2 247.1L236.766 246.852L236.534 247.257L236.923 247.516L237.2 247.1ZM242.4 238L242.7 237.6L242.247 237.26L241.966 237.752L242.4 238ZM247.9 241.3L247.682 241.75L247.9 241.3ZM254.3 243.7L254.168 244.182L254.175 244.184L254.182 244.186L254.3 243.7ZM266.6 243.5L266.446 243.024L266.442 243.026L266.6 243.5ZM271.7 240.2L271.331 239.863L271.323 239.872L271.7 240.2ZM272 228.8L271.613 229.117L272 228.8ZM267.3 225L267.041 225.427L267.049 225.433L267.058 225.438L267.3 225ZM261.1 222L261.279 221.533L261.1 222ZM254.1 219.1L253.892 219.555L253.897 219.557L254.1 219.1ZM247.6 215.2L247.288 215.591L247.296 215.597L247.6 215.2ZM242.7 209.4L242.264 209.644L242.7 209.4ZM243.6 190.6L244.022 190.868V190.868L243.6 190.6ZM251.3 183.6L251.069 183.156L251.066 183.158L251.3 183.6ZM262.8 180.8V180.3H262.792L262.785 180.3L262.8 180.8ZM275.9 182.7L275.734 183.172L275.744 183.175L275.9 182.7ZM285.6 187.1L286.048 187.322L286.25 186.914L285.863 186.675L285.6 187.1ZM281.428 195.555C278.802 194.208 276.01 193.065 273.052 192.124L272.748 193.076C275.657 194.002 278.398 195.125 280.972 196.445L281.428 195.555ZM273.061 192.127C270.084 191.112 267.23 190.6 264.5 190.6V191.6C267.104 191.6 269.849 192.088 272.739 193.073L273.061 192.127ZM264.5 190.6C260.829 190.6 257.846 191.416 255.6 193.1L256.2 193.9C258.221 192.384 260.971 191.6 264.5 191.6V190.6ZM255.594 193.105C253.395 194.807 252.3 197.158 252.3 200.1H253.3C253.3 197.442 254.271 195.393 256.206 193.895L255.594 193.105ZM252.3 200.1C252.3 202.237 253.089 204.125 254.639 205.746L255.361 205.054C253.978 203.608 253.3 201.963 253.3 200.1H252.3ZM254.646 205.754C256.158 207.266 258.072 208.595 260.376 209.747L260.824 208.853C258.595 207.738 256.775 206.468 255.354 205.046L254.646 205.754ZM260.387 209.752C262.664 210.824 265.074 211.861 267.616 212.865L267.984 211.935C265.459 210.938 263.069 209.909 260.813 208.848L260.387 209.752ZM267.629 212.87C269.807 213.662 271.952 214.619 274.065 215.742L274.535 214.858C272.381 213.715 270.193 212.738 267.971 211.93L267.629 212.87ZM274.082 215.75C276.239 216.796 278.165 218.102 279.861 219.667L280.539 218.933C278.768 217.298 276.761 215.937 274.518 214.85L274.082 215.75ZM279.861 219.667C281.536 221.214 282.863 223.152 283.838 225.492L284.762 225.108C283.737 222.648 282.331 220.586 280.539 218.933L279.861 219.667ZM283.845 225.508C284.874 227.757 285.4 230.581 285.4 234H286.4C286.4 230.485 285.86 227.509 284.755 225.092L283.845 225.508ZM285.4 234C285.4 237.71 284.457 241.121 282.572 244.241L283.428 244.759C285.409 241.479 286.4 237.89 286.4 234H285.4ZM282.574 244.237C280.693 247.286 277.998 249.727 274.47 251.556L274.93 252.444C278.602 250.54 281.44 247.981 283.426 244.763L282.574 244.237ZM274.47 251.556C270.958 253.377 266.642 254.3 261.5 254.3V255.3C266.758 255.3 271.242 254.356 274.93 252.444L274.47 251.556ZM261.5 254.3C258.537 254.3 255.608 253.971 252.711 253.312L252.489 254.288C255.459 254.962 258.463 255.3 261.5 255.3V254.3ZM252.713 253.313C249.875 252.653 247.171 251.762 244.6 250.642L244.2 251.558C246.829 252.704 249.592 253.614 252.487 254.287L252.713 253.313ZM244.61 250.646C242.031 249.456 239.654 248.135 237.477 246.684L236.923 247.516C239.146 248.998 241.569 250.344 244.19 251.554L244.61 250.646ZM237.634 247.348L242.834 238.248L241.966 237.752L236.766 246.852L237.634 247.348ZM242.1 238.4C243.729 239.622 245.591 240.738 247.682 241.75L248.118 240.85C246.076 239.862 244.271 238.778 242.7 237.6L242.1 238.4ZM247.682 241.75C249.776 242.763 251.939 243.574 254.168 244.182L254.432 243.218C252.261 242.626 250.157 241.837 248.118 240.85L247.682 241.75ZM254.182 244.186C256.414 244.727 258.521 245 260.5 245V244C258.612 244 256.586 243.74 254.418 243.214L254.182 244.186ZM260.5 245C262.621 245 264.708 244.658 266.758 243.974L266.442 243.026C264.492 243.676 262.512 244 260.5 244V245ZM266.754 243.976C268.901 243.283 270.68 242.135 272.077 240.528L271.323 239.872C270.053 241.332 268.433 242.383 266.447 243.024L266.754 243.976ZM272.069 240.537C273.571 238.892 274.3 236.729 274.3 234.1H273.3C273.3 236.537 272.629 238.441 271.331 239.863L272.069 240.537ZM274.3 234.1C274.3 231.929 273.667 230.048 272.387 228.483L271.613 229.117C272.733 230.486 273.3 232.138 273.3 234.1H274.3ZM272.387 228.483C271.141 226.96 269.522 225.655 267.542 224.562L267.058 225.438C268.945 226.479 270.459 227.707 271.613 229.117L272.387 228.483ZM267.559 224.573C265.664 223.422 263.57 222.409 261.279 221.533L260.921 222.467C263.163 223.324 265.202 224.311 267.041 225.427L267.559 224.573ZM261.279 221.533C259.021 220.67 256.696 219.706 254.303 218.643L253.897 219.557C256.304 220.627 258.646 221.597 260.921 222.467L261.279 221.533ZM254.308 218.645C252.008 217.594 249.874 216.313 247.904 214.803L247.296 215.597C249.326 217.153 251.525 218.473 253.892 219.555L254.308 218.645ZM247.912 214.81C245.964 213.25 244.372 211.367 243.136 209.156L242.264 209.644C243.561 211.966 245.236 213.95 247.288 215.59L247.912 214.81ZM243.136 209.156C241.922 206.982 241.3 204.272 241.3 201H240.3C240.3 204.395 240.945 207.284 242.264 209.644L243.136 209.156ZM241.3 201C241.3 197.08 242.214 193.71 244.022 190.868L243.178 190.332C241.253 193.357 240.3 196.92 240.3 201H241.3ZM244.022 190.868C245.839 188.013 248.339 185.737 251.534 184.042L251.066 183.158C247.728 184.93 245.094 187.321 243.178 190.332L244.022 190.868ZM251.531 184.044C254.788 182.35 258.546 181.431 262.815 181.3L262.785 180.3C258.388 180.436 254.479 181.383 251.069 183.156L251.531 184.044ZM262.8 181.3C267.895 181.3 272.202 181.929 275.734 183.172L276.066 182.228C272.398 180.938 267.972 180.3 262.8 180.3V181.3ZM275.744 183.175C279.38 184.365 282.576 185.816 285.337 187.525L285.863 186.675C283.024 184.917 279.754 183.435 276.056 182.225L275.744 183.175ZM285.152 186.878L280.752 195.778L281.648 196.222L286.048 187.322L285.152 186.878ZM310.003 211.7L310.501 211.658L310.463 211.2H310.003V211.7ZM311.003 223.7L310.516 223.815L311.501 223.658L311.003 223.7ZM310.603 222L310.151 221.786L310.076 221.944L310.116 222.115L310.603 222ZM315.503 215.5L315.832 215.877L315.832 215.876L315.503 215.5ZM322.003 211.3L322.198 211.76L322.21 211.755L322.003 211.3ZM327.403 209.8L327.903 209.822L327.926 209.3H327.403V209.8ZM326.903 221L326.862 221.498L327.379 221.541L327.403 221.022L326.903 221ZM318.503 222.8L318.76 223.229L318.764 223.227L318.503 222.8ZM313.003 228.4L312.569 228.152L312.564 228.161L313.003 228.4ZM311.103 254V254.5H311.603V254H311.103ZM299.903 254H299.403V254.5H299.903V254ZM299.903 211.7V211.2H299.403V211.7H299.903ZM309.505 211.742L310.505 223.742L311.501 223.658L310.501 211.658L309.505 211.742ZM311.49 223.585L311.09 221.885L310.116 222.115L310.516 223.815L311.49 223.585ZM311.055 222.214C312.226 219.742 313.818 217.631 315.832 215.877L315.175 215.123C313.055 216.969 311.38 219.192 310.151 221.786L311.055 222.214ZM315.832 215.876C317.933 214.038 320.055 212.669 322.198 211.76L321.808 210.84C319.551 211.797 317.34 213.228 315.174 215.124L315.832 215.876ZM322.21 211.755C324.386 210.766 326.109 210.3 327.403 210.3V209.3C325.898 209.3 324.021 209.834 321.796 210.845L322.21 211.755ZM326.904 209.778L326.404 220.978L327.403 221.022L327.903 209.822L326.904 209.778ZM326.945 220.502C323.654 220.228 320.745 220.844 318.242 222.373L318.764 223.227C321.061 221.823 323.752 221.239 326.862 221.498L326.945 220.502ZM318.246 222.371C315.84 223.815 313.945 225.743 312.569 228.152L313.437 228.648C314.728 226.39 316.5 224.585 318.76 223.229L318.246 222.371ZM312.564 228.161C311.258 230.566 310.603 233.115 310.603 235.8H311.603C311.603 233.285 312.215 230.9 313.443 228.639L312.564 228.161ZM310.603 235.8V254H311.603V235.8H310.603ZM311.103 253.5H299.903V254.5H311.103V253.5ZM300.403 254V211.7H299.403V254H300.403ZM299.903 212.2H310.003V211.2H299.903V212.2ZM339.868 211.7V211.2H339.368V211.7H339.868ZM351.068 211.7H351.568V211.2H351.068V211.7ZM351.068 254V254.5H351.568V254H351.068ZM339.868 254H339.368V254.5H339.868V254ZM341.368 192.3L341.053 191.911L341.044 191.919L341.368 192.3ZM350.168 192.3L349.834 192.673L349.844 192.681L350.168 192.3ZM350.168 200.9L350.49 201.282L350.492 201.281L350.168 200.9ZM341.368 200.8L341.044 201.181L341.053 201.189L341.368 200.8ZM339.868 212.2H351.068V211.2H339.868V212.2ZM350.568 211.7V254H351.568V211.7H350.568ZM351.068 253.5H339.868V254.5H351.068V253.5ZM340.368 254V211.7H339.368V254H340.368ZM339.868 196.6C339.868 195.015 340.469 193.72 341.692 192.681L341.044 191.919C339.6 193.146 338.868 194.718 338.868 196.6H339.868ZM341.683 192.689C343.005 191.618 344.397 191.1 345.868 191.1V190.1C344.139 190.1 342.531 190.716 341.053 191.911L341.683 192.689ZM345.868 191.1C347.337 191.1 348.653 191.616 349.835 192.673L350.501 191.927C349.149 190.718 347.599 190.1 345.868 190.1V191.1ZM349.844 192.681C351.067 193.72 351.668 195.015 351.668 196.6H352.668C352.668 194.718 351.936 193.146 350.492 191.919L349.844 192.681ZM351.668 196.6C351.668 198.185 351.067 199.48 349.844 200.519L350.492 201.281C351.936 200.054 352.668 198.482 352.668 196.6H351.668ZM349.846 200.518C348.666 201.511 347.346 202 345.868 202V203C347.59 203 349.137 202.422 350.49 201.282L349.846 200.518ZM345.868 202C344.397 202 343.005 201.482 341.683 200.411L341.053 201.189C342.531 202.384 344.139 203 345.868 203V202ZM341.692 200.419C340.464 199.375 339.868 198.112 339.868 196.6H338.868C338.868 198.422 339.605 199.958 341.044 201.181L341.692 200.419ZM235.4 348L234.94 347.805L234.644 348.5H235.4V348ZM267.6 272.2V271.7H267.269L267.14 272.005L267.6 272.2ZM268.3 272.2L268.76 272.005L268.631 271.7H268.3V272.2ZM300.5 348V348.5H301.256L300.96 347.805L300.5 348ZM287.1 348L286.635 348.184L286.76 348.5H287.1V348ZM264.4 290.5L264.119 290.086L263.788 290.311L263.935 290.684L264.4 290.5ZM272.8 284.8L273.263 284.99L273.892 283.455L272.519 284.386L272.8 284.8ZM246.9 348V348.5H247.235L247.363 348.19L246.9 348ZM255.6 321V320.5H255.246L255.129 320.833L255.6 321ZM280.5 321L280.964 320.813L280.837 320.5H280.5V321ZM284.5 330.9V331.4H285.241L284.964 330.713L284.5 330.9ZM252.1 330.9L251.629 330.733L251.393 331.4H252.1V330.9ZM235.86 348.195L268.06 272.395L267.14 272.005L234.94 347.805L235.86 348.195ZM267.6 272.7H268.3V271.7H267.6V272.7ZM267.84 272.395L300.04 348.195L300.96 347.805L268.76 272.005L267.84 272.395ZM300.5 347.5H287.1V348.5H300.5V347.5ZM287.565 347.816L264.865 290.316L263.935 290.684L286.635 348.184L287.565 347.816ZM264.681 290.914L273.081 285.214L272.519 284.386L264.119 290.086L264.681 290.914ZM272.337 284.61L246.437 347.81L247.363 348.19L273.263 284.99L272.337 284.61ZM246.9 347.5H235.4V348.5H246.9V347.5ZM255.6 321.5H280.5V320.5H255.6V321.5ZM280.036 321.187L284.036 331.087L284.964 330.713L280.964 320.813L280.036 321.187ZM284.5 330.4H252.1V331.4H284.5V330.4ZM252.571 331.067L256.071 321.167L255.129 320.833L251.629 330.733L252.571 331.067ZM321.722 305.7L322.219 305.642L322.167 305.2H321.722V305.7ZM322.722 314.3L322.288 314.548L323.219 314.242L322.722 314.3ZM322.322 313.6L321.879 313.369L321.752 313.611L321.888 313.848L322.322 313.6ZM328.822 306.4L328.559 305.975L328.554 305.978L328.822 306.4ZM349.222 308L348.85 308.335L348.859 308.344L349.222 308ZM351.722 313L351.88 313.474L352.299 313.335L352.212 312.902L351.722 313ZM351.122 313.2L350.694 312.941L349.991 314.104L351.28 313.674L351.122 313.2ZM357.822 306.4L358.082 306.827L358.09 306.822L357.822 306.4ZM376.422 307.4L376.073 307.758L376.078 307.763L376.422 307.4ZM380.222 316.5H380.722L380.722 316.491L380.222 316.5ZM380.222 348V348.5H380.722V348H380.222ZM369.122 348H368.622V348.5H369.122V348ZM369.122 320.9H369.622V320.892L369.622 320.884L369.122 320.9ZM367.822 315.8L367.388 316.048L367.393 316.057L367.822 315.8ZM363.322 313.5L363.352 313.001L363.337 313H363.322V313.5ZM357.122 315.8L357.445 316.182L357.453 316.174L357.122 315.8ZM353.022 321.6L352.56 321.408L352.558 321.414L353.022 321.6ZM351.622 348V348.5H352.122V348H351.622ZM340.322 348H339.822V348.5H340.322V348ZM340.322 320.9H340.822V320.892L340.822 320.884L340.322 320.9ZM338.922 315.8L338.497 316.063L338.503 316.072L338.922 315.8ZM334.322 313.5L334.352 313.001L334.337 313H334.322V313.5ZM328.222 315.8L328.545 316.182L328.553 316.174L328.222 315.8ZM324.222 321.6L324.686 321.786L324.688 321.781L324.222 321.6ZM322.822 348V348.5H323.322V348H322.822ZM311.622 348H311.122V348.5H311.622V348ZM311.622 305.7V305.2H311.122V305.7H311.622ZM321.225 305.758L322.225 314.358L323.219 314.242L322.219 305.642L321.225 305.758ZM323.156 314.052L322.756 313.352L321.888 313.848L322.288 314.548L323.156 314.052ZM322.765 313.831C324.327 310.837 326.436 308.505 329.09 306.822L328.554 305.978C325.741 307.761 323.516 310.23 321.879 313.369L322.765 313.831ZM329.085 306.825C331.797 305.146 334.937 304.3 338.522 304.3V303.3C334.773 303.3 331.447 304.187 328.559 305.975L329.085 306.825ZM338.522 304.3C340.803 304.3 342.804 304.658 344.533 305.363L344.911 304.437C343.04 303.675 340.907 303.3 338.522 303.3V304.3ZM344.533 305.363C346.269 306.07 347.705 307.062 348.85 308.334L349.594 307.666C348.339 306.271 346.775 305.196 344.911 304.437L344.533 305.363ZM348.859 308.344C350.054 309.602 350.848 311.18 351.232 313.098L352.212 312.902C351.796 310.82 350.923 309.065 349.584 307.656L348.859 308.344ZM351.564 312.526L350.964 312.726L351.28 313.674L351.88 313.474L351.564 312.526ZM351.55 313.459C353.244 310.657 355.421 308.45 358.082 306.827L357.562 305.973C354.756 307.684 352.467 310.009 350.694 312.941L351.55 313.459ZM358.09 306.822C360.748 305.137 363.555 304.3 366.522 304.3V303.3C363.355 303.3 360.363 304.197 357.554 305.978L358.09 306.822ZM366.522 304.3C370.553 304.3 373.718 305.467 376.073 307.758L376.771 307.042C374.192 304.533 370.758 303.3 366.522 303.3V304.3ZM376.078 307.763C378.437 309.995 379.657 312.895 379.722 316.509L380.722 316.491C380.653 312.638 379.34 309.472 376.765 307.037L376.078 307.763ZM379.722 316.5V348H380.722V316.5H379.722ZM380.222 347.5H369.122V348.5H380.222V347.5ZM369.622 348V320.9H368.622V348H369.622ZM369.622 320.884C369.553 318.759 369.107 316.969 368.251 315.543L367.393 316.057C368.137 317.297 368.557 318.907 368.622 320.916L369.622 320.884ZM368.256 315.552C367.343 313.955 365.652 313.14 363.352 313.001L363.292 313.999C365.391 314.126 366.7 314.845 367.388 316.048L368.256 315.552ZM363.322 313C360.805 313 358.619 313.808 356.791 315.425L357.453 316.174C359.091 314.725 361.039 314 363.322 314V313ZM356.799 315.418C354.997 316.943 353.586 318.945 352.56 321.408L353.483 321.792C354.457 319.455 355.78 317.59 357.445 316.182L356.799 315.418ZM352.558 321.414C351.599 323.81 351.122 326.374 351.122 329.1H352.122C352.122 326.493 352.578 324.056 353.486 321.786L352.558 321.414ZM351.122 329.1V348H352.122V329.1H351.122ZM351.622 347.5H340.322V348.5H351.622V347.5ZM340.822 348V320.9H339.822V348H340.822ZM340.822 320.884C340.753 318.753 340.27 316.957 339.341 315.527L338.503 316.072C339.307 317.31 339.758 318.914 339.822 320.916L340.822 320.884ZM339.347 315.537C338.367 313.954 336.654 313.14 334.352 313.001L334.292 313.999C336.39 314.126 337.743 314.846 338.497 316.063L339.347 315.537ZM334.322 313C331.868 313 329.716 313.811 327.891 315.426L328.553 316.174C330.194 314.723 332.109 314 334.322 314V313ZM327.899 315.418C326.094 316.946 324.715 318.952 323.756 321.419L324.688 321.781C325.595 319.448 326.883 317.588 328.545 316.182L327.899 315.418ZM323.758 321.414C322.8 323.809 322.322 326.339 322.322 329H323.322C323.322 326.461 323.777 324.058 324.686 321.786L323.758 321.414ZM322.322 329V348H323.322V329H322.322ZM322.822 347.5H311.622V348.5H322.822V347.5ZM312.122 348V305.7H311.122V348H312.122ZM311.622 306.2H321.722V305.2H311.622V306.2ZM413.506 346.9L413.262 347.336L413.27 347.341L413.506 346.9ZM406.806 341.1L406.334 340.937L406.248 341.186L406.405 341.398L406.806 341.1ZM407.806 338.2H408.306L407.334 338.037L407.806 338.2ZM407.806 348V348.5H408.306V348H407.806ZM396.606 348H396.106V348.5H396.606V348ZM396.606 270V269.5H396.106V270H396.606ZM407.806 270H408.306V269.5H407.806V270ZM407.806 314.4L407.307 314.425L408.306 314.4H407.806ZM407.606 310.4L407.228 310.074L407.097 310.225L407.107 310.425L407.606 310.4ZM414.606 305.7L414.792 306.164L414.801 306.161L414.606 305.7ZM435.006 306.5L434.753 306.931L434.764 306.938L435.006 306.5ZM442.506 314.1L442.07 314.344L442.506 314.1ZM442.206 338.4L441.777 338.144L441.773 338.15L442.206 338.4ZM434.106 346.4L434.344 346.84L434.347 346.838L434.106 346.4ZM427.406 337.9L427.659 338.331L427.663 338.329L427.406 337.9ZM432.106 333L431.674 332.749L431.668 332.76L432.106 333ZM432.106 319.2L431.671 319.447L431.678 319.457L432.106 319.2ZM427.406 314.5L427.143 314.925L427.151 314.93L427.16 314.935L427.406 314.5ZM415.006 313.8L414.818 313.337L414.811 313.34L415.006 313.8ZM410.506 316.9L410.144 316.556L410.143 316.556L410.506 316.9ZM407.806 321.4L407.334 321.236L407.306 321.316V321.4H407.806ZM407.806 330.8H407.306V330.893L407.34 330.979L407.806 330.8ZM410.606 335.4L410.235 335.734L410.606 335.4ZM415.006 338.5L414.811 338.961L414.818 338.963L415.006 338.5ZM423.306 348.6C419.57 348.6 416.389 347.879 413.743 346.459L413.27 347.341C416.09 348.854 419.442 349.6 423.306 349.6V348.6ZM413.751 346.464C411.074 344.962 408.896 343.074 407.208 340.802L406.405 341.398C408.183 343.792 410.472 345.771 413.262 347.336L413.751 346.464ZM407.279 341.263L408.279 338.363L407.334 338.037L406.334 340.937L407.279 341.263ZM407.306 338.2V348H408.306V338.2H407.306ZM407.806 347.5H396.606V348.5H407.806V347.5ZM397.106 348V270H396.106V348H397.106ZM396.606 270.5H407.806V269.5H396.606V270.5ZM407.306 270V314.4H408.306V270H407.306ZM408.306 314.375L408.106 310.375L407.107 310.425L407.307 314.425L408.306 314.375ZM407.985 310.726C409.587 308.868 411.847 307.342 414.792 306.164L414.421 305.236C411.365 306.458 408.959 308.065 407.228 310.074L407.985 310.726ZM414.801 306.161C417.73 304.924 421.062 304.3 424.806 304.3V303.3C420.95 303.3 417.483 303.943 414.412 305.239L414.801 306.161ZM424.806 304.3C428.455 304.3 431.767 305.179 434.753 306.931L435.259 306.069C432.112 304.221 428.624 303.3 424.806 303.3V304.3ZM434.764 306.938C437.811 308.623 440.246 311.087 442.07 314.344L442.943 313.856C441.034 310.447 438.469 307.844 435.248 306.062L434.764 306.938ZM442.07 314.344C443.887 317.588 444.806 321.5 444.806 326.1H445.806C445.806 321.367 444.859 317.279 442.943 313.856L442.07 314.344ZM444.806 326.1C444.806 330.759 443.79 334.767 441.777 338.144L442.636 338.656C444.756 335.099 445.806 330.908 445.806 326.1H444.806ZM441.773 338.15C439.817 341.54 437.183 344.141 433.866 345.962L434.347 346.838C437.83 344.926 440.595 342.193 442.639 338.65L441.773 338.15ZM433.869 345.96C430.61 347.72 427.092 348.6 423.306 348.6V349.6C427.254 349.6 430.936 348.68 434.344 346.84L433.869 345.96ZM420.906 340.1C423.389 340.1 425.644 339.513 427.659 338.331L427.153 337.469C425.302 338.554 423.224 339.1 420.906 339.1V340.1ZM427.663 338.329C429.74 337.083 431.369 335.384 432.545 333.24L431.668 332.76C430.577 334.749 429.072 336.317 427.149 337.471L427.663 338.329ZM432.539 333.251C433.787 331.102 434.406 328.68 434.406 326H433.406C433.406 328.52 432.826 330.765 431.674 332.749L432.539 333.251ZM434.406 326C434.406 323.384 433.786 321.027 432.535 318.943L431.678 319.457C432.827 321.373 433.406 323.549 433.406 326H434.406ZM432.541 318.953C431.363 316.875 429.731 315.243 427.653 314.065L427.16 314.935C429.081 316.024 430.583 317.525 431.671 319.447L432.541 318.953ZM427.67 314.075C425.653 312.823 423.394 312.2 420.906 312.2V313.2C423.218 313.2 425.293 313.777 427.143 314.925L427.67 314.075ZM420.906 312.2C418.715 312.2 416.683 312.577 414.818 313.337L415.195 314.263C416.929 313.556 418.831 313.2 420.906 313.2V312.2ZM414.811 313.34C413.016 314.099 411.459 315.171 410.144 316.556L410.869 317.244C412.087 315.962 413.529 314.968 415.201 314.26L414.811 313.34ZM410.143 316.556C408.892 317.877 407.956 319.439 407.334 321.236L408.279 321.564C408.857 319.894 409.721 318.456 410.869 317.244L410.143 316.556ZM407.306 321.4V330.8H408.306V321.4H407.306ZM407.34 330.979C408.027 332.768 408.992 334.354 410.235 335.734L410.978 335.066C409.82 333.779 408.918 332.299 408.273 330.621L407.34 330.979ZM410.235 335.734C411.486 337.125 413.014 338.2 414.811 338.96L415.201 338.04C413.532 337.333 412.126 336.342 410.978 335.066L410.235 335.734ZM414.818 338.963C416.683 339.723 418.715 340.1 420.906 340.1V339.1C418.831 339.1 416.929 338.744 415.195 338.037L414.818 338.963ZM465.053 346.6L464.822 347.043L464.826 347.045L465.053 346.6ZM457.453 339.2L457.017 339.444L457.019 339.448L457.453 339.2ZM457.553 314.6L457.12 314.35L457.118 314.353L457.553 314.6ZM465.353 306.6L465.105 306.166L465.101 306.168L465.353 306.6ZM485.753 306.2L485.481 306.62L485.486 306.623L485.753 306.2ZM491.653 311.9L492.121 312.076L492.209 311.842L492.075 311.632L491.653 311.9ZM491.053 313.5L490.558 313.43L491.521 313.676L491.053 313.5ZM492.153 305.7V305.2H491.719L491.658 305.63L492.153 305.7ZM502.453 305.7H502.953V305.2H502.453V305.7ZM502.453 348V348.5H502.953V348H502.453ZM491.253 348H490.753V348.5H491.253V348ZM491.253 337.7L491.716 337.511L490.753 337.7H491.253ZM492.353 340.4L492.769 340.677L492.916 340.457L492.816 340.211L492.353 340.4ZM490.753 342.4L491.121 342.739L491.127 342.732L491.133 342.725L490.753 342.4ZM487.453 345.3L487.15 344.902L487.453 345.3ZM482.453 348L482.276 347.532L482.27 347.535L482.453 348ZM484.453 338.8L484.252 338.342L484.245 338.345L484.453 338.8ZM488.653 335.7L488.281 335.366L488.277 335.371L488.272 335.376L488.653 335.7ZM491.253 330.9L491.734 331.037L491.753 330.97V330.9H491.253ZM491.253 321.7H491.753V321.625L491.731 321.553L491.253 321.7ZM488.653 317.2L488.281 317.535L488.29 317.544L488.653 317.2ZM484.253 314.1L484.052 314.558L484.058 314.56L484.253 314.1ZM472.353 314.7L472.606 315.131L472.353 314.7ZM467.653 319.4L467.224 319.143L467.218 319.153L467.653 319.4ZM467.753 333.2L467.321 333.451L467.753 333.2ZM472.553 338.1L472.81 337.671L472.553 338.1ZM475.953 348.6C472.025 348.6 468.47 347.782 465.28 346.155L464.826 347.045C468.169 348.751 471.881 349.6 475.953 349.6V348.6ZM465.284 346.157C462.173 344.536 459.708 342.139 457.887 338.952L457.019 339.448C458.931 342.794 461.533 345.331 464.822 347.043L465.284 346.157ZM457.889 338.956C456.074 335.715 455.153 331.704 455.153 326.9H454.153C454.153 331.829 455.098 336.019 457.017 339.444L457.889 338.956ZM455.153 326.9C455.153 322.167 456.106 318.156 457.988 314.847L457.118 314.353C455.134 317.844 454.153 322.033 454.153 326.9H455.153ZM457.986 314.85C459.946 311.452 462.486 308.851 465.605 307.032L465.101 306.168C461.82 308.082 459.16 310.814 457.12 314.35L457.986 314.85ZM465.601 307.034C468.792 305.211 472.239 304.3 475.953 304.3V303.3C472.067 303.3 468.448 304.256 465.105 306.166L465.601 307.034ZM475.953 304.3C479.959 304.3 483.121 305.089 485.481 306.619L486.025 305.781C483.452 304.111 480.081 303.3 475.953 303.3V304.3ZM485.486 306.623C487.966 308.189 489.876 310.039 491.231 312.168L492.075 311.632C490.63 309.361 488.607 307.411 486.02 305.777L485.486 306.623ZM491.185 311.724L490.585 313.324L491.521 313.676L492.121 312.076L491.185 311.724ZM491.548 313.57L492.648 305.77L491.658 305.63L490.558 313.43L491.548 313.57ZM492.153 306.2H502.453V305.2H492.153V306.2ZM501.953 305.7V348H502.953V305.7H501.953ZM502.453 347.5H491.253V348.5H502.453V347.5ZM491.753 348V337.7H490.753V348H491.753ZM490.79 337.889L491.89 340.589L492.816 340.211L491.716 337.511L490.79 337.889ZM491.937 340.123C491.689 340.494 491.174 341.14 490.374 342.075L491.133 342.725C491.932 341.793 492.484 341.106 492.769 340.677L491.937 340.123ZM490.386 342.061C489.612 342.899 488.537 343.846 487.15 344.902L487.756 345.698C489.169 344.621 490.294 343.635 491.121 342.739L490.386 342.061ZM487.15 344.902C485.794 345.935 484.172 346.813 482.276 347.533L482.63 348.467C484.601 347.72 486.312 346.798 487.756 345.698L487.15 344.902ZM482.27 347.535C480.474 348.24 478.371 348.6 475.953 348.6V349.6C478.468 349.6 480.699 349.226 482.636 348.465L482.27 347.535ZM479.053 340.4C481.115 340.4 482.988 340.022 484.661 339.255L484.245 338.345C482.719 339.045 480.991 339.4 479.053 339.4V340.4ZM484.654 339.258C486.387 338.495 487.85 337.417 489.034 336.024L488.272 335.376C487.19 336.65 485.852 337.638 484.252 338.342L484.654 339.258ZM489.025 336.034C490.28 334.64 491.181 332.971 491.734 331.037L490.772 330.763C490.258 332.562 489.426 334.093 488.281 335.366L489.025 336.034ZM491.753 330.9V321.7H490.753V330.9H491.753ZM491.731 321.553C491.176 319.749 490.271 318.181 489.016 316.856L488.29 317.544C489.435 318.752 490.264 320.184 490.775 321.847L491.731 321.553ZM489.025 316.866C487.773 315.475 486.245 314.4 484.448 313.64L484.058 314.56C485.728 315.267 487.133 316.258 488.281 317.534L489.025 316.866ZM484.454 313.642C482.716 312.878 480.78 312.5 478.653 312.5V313.5C480.66 313.5 482.457 313.856 484.052 314.558L484.454 313.642ZM478.653 312.5C476.299 312.5 474.111 313.09 472.1 314.269L472.606 315.131C474.462 314.044 476.474 313.5 478.653 313.5V312.5ZM472.1 314.269C470.092 315.446 468.466 317.074 467.224 319.143L468.082 319.657C469.241 317.726 470.748 316.221 472.606 315.131L472.1 314.269ZM467.218 319.153C466.037 321.238 465.453 323.625 465.453 326.3H466.453C466.453 323.775 467.003 321.562 468.088 319.646L467.218 319.153ZM465.453 326.3C465.453 328.916 466.074 331.304 467.321 333.451L468.186 332.949C467.032 330.963 466.453 328.751 466.453 326.3H465.453ZM467.321 333.451C468.562 335.589 470.222 337.284 472.296 338.529L472.81 337.671C470.885 336.516 469.344 334.944 468.186 332.949L467.321 333.451ZM472.296 338.529C474.374 339.775 476.629 340.4 479.053 340.4V339.4C476.81 339.4 474.733 338.825 472.81 337.671L472.296 338.529ZM518.919 270V269.5H518.419V270H518.919ZM530.119 270H530.619V269.5H530.119V270ZM530.119 348V348.5H530.619V348H530.119ZM518.919 348H518.419V348.5H518.919V348ZM518.919 270.5H530.119V269.5H518.919V270.5ZM529.619 270V348H530.619V270H529.619ZM530.119 347.5H518.919V348.5H530.119V347.5ZM519.419 348V270H518.419V348H519.419Z" fill="black"/>
</g>
<path d="M74.3474 335.25L54.4666 354.541L81.5334 364.577L79.0355 336.988L74.3474 335.25ZM137.915 171L140.186 169.954L137.665 164.483L135.571 170.131L137.915 171ZM224.78 359.559L223.25 361.536L227.05 358.513L224.78 359.559ZM554.667 265.28C554.667 272.643 560.636 278.613 568 278.613C575.364 278.613 581.333 272.643 581.333 265.28C581.333 257.916 575.364 251.946 568 251.946C560.636 251.946 554.667 257.916 554.667 265.28ZM135.645 172.046L222.509 360.605L227.05 358.513L140.186 169.954L135.645 172.046ZM78.1663 339.332L105.302 266.149L100.614 264.411L73.4782 337.594L78.1663 339.332ZM105.302 266.149L140.259 171.869L135.571 170.131L100.614 264.411L105.302 266.149ZM226.31 357.582L104.488 263.303L101.428 267.257L223.25 361.536L226.31 357.582ZM102.958 267.78H568V262.78H102.958V267.78Z" fill="black"/>
<defs>
<filter id="filter0_d_20_2" x="0" y="0" width="636" height="587" filterUnits="userSpaceOnUse" color-interpolation-filters="sRGB">
<feFlood flood-opacity="0" result="BackgroundImageFix"/>
<feColorMatrix in="SourceAlpha" type="matrix" values="0 0 0 0 0 0 0 0 0 0 0 0 0 0 0 0 0 0 127 0" result="hardAlpha"/>
<feOffset dy="4"/>
<feGaussianBlur stdDeviation="4"/>
<feComposite in2="hardAlpha" operator="out"/>
<feColorMatrix type="matrix" values="0 0 0 0 0 0 0 0 0 0 0 0 0 0 0 0 0 0 0.47 0"/>
<feBlend mode="normal" in2="BackgroundImageFix" result="effect1_dropShadow_20_2"/>
<feBlend mode="normal" in="SourceGraphic" in2="effect1_dropShadow_20_2" result="shape"/>
</filter>
<filter id="filter1_d_20_2" x="290.12" y="355.38" width="284.386" height="78.68" filterUnits="userSpaceOnUse" color-interpolation-filters="sRGB">
<feFlood flood-opacity="0" result="BackgroundImageFix"/>
<feColorMatrix in="SourceAlpha" type="matrix" values="0 0 0 0 0 0 0 0 0 0 0 0 0 0 0 0 0 0 127 0" result="hardAlpha"/>
<feOffset dy="4"/>
<feGaussianBlur stdDeviation="5"/>
<feComposite in2="hardAlpha" operator="out"/>
<feColorMatrix type="matrix" values="0 0 0 0 0 0 0 0 0 0 0 0 0 0 0 0 0 0 0.25 0"/>
<feBlend mode="normal" in2="BackgroundImageFix" result="effect1_dropShadow_20_2"/>
<feBlend mode="normal" in="SourceGraphic" in2="effect1_dropShadow_20_2" result="shape"/>
</filter>
<filter id="filter2_d_20_2" x="227.4" y="176.8" width="310.719" height="184.3" filterUnits="userSpaceOnUse" color-interpolation-filters="sRGB">
<feFlood flood-opacity="0" result="BackgroundImageFix"/>
<feColorMatrix in="SourceAlpha" type="matrix" values="0 0 0 0 0 0 0 0 0 0 0 0 0 0 0 0 0 0 127 0" result="hardAlpha"/>
<feOffset dy="4"/>
<feGaussianBlur stdDeviation="4"/>
<feComposite in2="hardAlpha" operator="out"/>
<feColorMatrix type="matrix" values="0 0 0 0 0 0 0 0 0 0 0 0 0 0 0 0 0 0 0.25 0"/>
<feBlend mode="normal" in2="BackgroundImageFix" result="effect1_dropShadow_20_2"/>
<feBlend mode="normal" in="SourceGraphic" in2="effect1_dropShadow_20_2" result="shape"/>
</filter>
</defs>
</svg>
